<?xml version="1.0" encoding="UTF-8"?><svg id="a" xmlns="http://www.w3.org/2000/svg" viewBox="0 0 163.27921 114.30076"><defs><style>.b{fill:#fff;}.c{fill:red;}</style></defs><path class="c" d="M159.86504,17.84943c-1.88139-7.02955-7.40612-12.55375-14.43561-14.43547C132.70146,0,81.63931,0,81.63931,0c0,0-51.06146,0-63.78994,3.41397-7.0295,1.88172-12.55369,7.40591-14.43541,14.43547C0,30.57785,0,57.15038,0,57.15038c0,0,0,26.57264,3.41397,39.30118,1.88172,7.02949,7.40591,12.55365,14.43541,14.43504,12.72848,3.41417,63.78994,3.41417,63.78994,3.41417,0,0,51.06215,0,63.79011-3.41417,7.02949-1.88138,12.55422-7.40554,14.43561-14.43504,3.41417-12.72854,3.41417-39.30118,3.41417-39.30118,0,0-.01372-26.57253-3.41417-39.30094Z"/><path class="b" d="M53.18199,94.46164c-2.59344,0-4.80252-.92408-6.62723-2.77223-1.82471-1.84809-2.73706-4.08529-2.73706-6.71161v-18.70866h9.36429v18.72858h54.69144v-18.72858h9.36429v18.68166c0,2.62141-.92979,4.86189-2.78936,6.72147s-4.05122,2.78936-6.57493,2.78936H53.18199Zm27.39553-22.11567l-22.81301-22.71339,6.77417-6.67455,11.35669,11.45631V18.84998h9.36429V54.41436l11.35669-11.45631,6.77417,6.67455-22.81301,22.71339Z"/></svg>